<?xml version="1.0" encoding="UTF-8" standalone="no"?>
<!DOCTYPE svg PUBLIC "-//W3C//DTD SVG 1.1//EN"
 "http://www.w3.org/Graphics/SVG/1.1/DTD/svg11.dtd">
<!-- Generated by graphviz version 2.38.0 (20140413.2041)
 -->
<!-- Title: controllers_diagram Pages: 1 -->
<svg width="989pt" height="967pt"
 viewBox="0.00 0.00 989.20 967.00" xmlns="http://www.w3.org/2000/svg" xmlns:xlink="http://www.w3.org/1999/xlink">
<g id="graph0" class="graph" transform="scale(1 1) rotate(0) translate(423.828 543.5)">
<title>controllers_diagram</title>
<polygon fill="white" stroke="none" points="-423.828,423.5 -423.828,-543.5 565.373,-543.5 565.373,423.5 -423.828,423.5"/>
<!-- _diagram_info -->
<g id="node1" class="node"><title>_diagram_info</title>
<text text-anchor="start" x="7.55029" y="300.9" font-family="Times,serif" font-size="13.00">Controllers diagram</text>
<text text-anchor="start" x="7.55029" y="313.9" font-family="Times,serif" font-size="13.00">Date: Apr 20 2015 &***REMOVED***45; 13:48</text>
<text text-anchor="start" x="7.55029" y="326.9" font-family="Times,serif" font-size="13.00">Migration version: 20150418092115</text>
<text text-anchor="start" x="7.55029" y="339.9" font-family="Times,serif" font-size="13.00">Generated by RailRoady 1.3.0</text>
<text text-anchor="start" x="7.55029" y="352.9" font-family="Times,serif" font-size="13.00">http://railroady.prestonlee.com</text>
</g>
<!-- Admin::AdminsController -->
<g id="node2" class="node"><title>Admin::AdminsController</title>
<path fill="none" stroke="black" d="M371.724,134C371.724,134 512.276,134 512.276,134 518.276,134 524.276,128 524.276,122 524.276,122 524.276,56 524.276,56 524.276,50 518.276,44 512.276,44 512.276,44 371.724,44 371.724,44 365.724,44 359.724,50 359.724,56 359.724,56 359.724,122 359.724,122 359.724,128 365.724,134 371.724,134"/>
<text text-anchor="middle" x="442" y="59.2" font-family="Times,serif" font-size="14.00">Admin::AdminsController</text>
<polyline fill="none" stroke="black" points="359.724,66 524.276,66 "/>
<text text-anchor="start" x="367.724" y="81.2" font-family="Times,serif" font-size="14.00">index</text>
<polyline fill="none" stroke="black" points="359.724,88 524.276,88 "/>
<polyline fill="none" stroke="black" points="359.724,112 524.276,112 "/>
<text text-anchor="start" x="367.724" y="127.2" font-family="Times,serif" font-size="14.00">_layout</text>
</g>
<!-- Admin::ApplicationController -->
<g id="node3" class="node"><title>Admin::ApplicationController</title>
<path fill="none" stroke="black" d="M-168.155,179C-168.155,179 -5.84473,179 -5.84473,179 0.155273,179 6.15527,173 6.15527,167 6.15527,167 6.15527,101 6.15527,101 6.15527,95 0.155273,89 -5.84473,89 -5.84473,89 -168.155,89 -168.155,89 -174.155,89 -180.155,95 -180.155,101 -180.155,101 -180.155,167 -180.155,167 -180.155,173 -174.155,179 -168.155,179"/>
<text text-anchor="middle" x="-87" y="104.2" font-family="Times,serif" font-size="14.00">Admin::ApplicationController</text>
<polyline fill="none" stroke="black" points="-180.155,111 6.15527,111 "/>
<text text-anchor="start" x="-172.155" y="126.2" font-family="Times,serif" font-size="14.00">after_sign_in_path_for</text>
<polyline fill="none" stroke="black" points="-180.155,133 6.15527,133 "/>
<polyline fill="none" stroke="black" points="-180.155,157 6.15527,157 "/>
<text text-anchor="start" x="-172.155" y="172.2" font-family="Times,serif" font-size="14.00">_layout</text>
</g>
<!-- Admin::ConfirmationsController -->
<g id="node4" class="node"><title>Admin::ConfirmationsController</title>
<path fill="none" stroke="black" d="M191.834,-181C191.834,-181 368.166,-181 368.166,-181 374.166,-181 380.166,-187 380.166,-193 380.166,-193 380.166,-261 380.166,-261 380.166,-267 374.166,-273 368.166,-273 368.166,-273 191.834,-273 191.834,-273 185.834,-273 179.834,-267 179.834,-261 179.834,-261 179.834,-193 179.834,-193 179.834,-187 185.834,-181 191.834,-181"/>
<text text-anchor="middle" x="280" y="-257.8" font-family="Times,serif" font-size="14.00">Admin::ConfirmationsController</text>
<polyline fill="none" stroke="black" points="179.834,-251 380.166,-251 "/>
<polyline fill="none" stroke="black" points="179.834,-227 380.166,-227 "/>
<polyline fill="none" stroke="black" points="179.834,-203 380.166,-203 "/>
<text text-anchor="start" x="187.834" y="-187.8" font-family="Times,serif" font-size="14.00">_layout</text>
</g>
<!-- Admin::OmniauthCallbacksController -->
<g id="node5" class="node"><title>Admin::OmniauthCallbacksController</title>
<path fill="none" stroke="black" d="M72.293,-61C72.293,-61 279.707,-61 279.707,-61 285.707,-61 291.707,-67 291.707,-73 291.707,-73 291.707,-141 291.707,-141 291.707,-147 285.707,-153 279.707,-153 279.707,-153 72.293,-153 72.293,-153 66.293,-153 60.293,-147 60.293,-141 60.293,-141 60.293,-73 60.293,-73 60.293,-67 66.293,-61 72.293,-61"/>
<text text-anchor="middle" x="176" y="-137.8" font-family="Times,serif" font-size="14.00">Admin::OmniauthCallbacksController</text>
<polyline fill="none" stroke="black" points="60.293,-131 291.707,-131 "/>
<polyline fill="none" stroke="black" points="60.293,-107 291.707,-107 "/>
<polyline fill="none" stroke="black" points="60.293,-83 291.707,-83 "/>
<text text-anchor="start" x="68.293" y="-67.8" font-family="Times,serif" font-size="14.00">_layout</text>
</g>
<!-- Admin::OrdersController -->
<g id="node6" class="node"><title>Admin::OrdersController</title>
<path fill="none" stroke="black" d="M-3.15527,-286C-3.15527,-286 131.155,-286 131.155,-286 137.155,-286 143.155,-292 143.155,-298 143.155,-298 143.155,-406 143.155,-406 143.155,-412 137.155,-418 131.155,-418 131.155,-418 -3.15527,-418 -3.15527,-418 -9.15527,-418 -15.1553,-412 -15.1553,-406 -15.1553,-406 -15.1553,-298 -15.1553,-298 -15.1553,-292 -9.15527,-286 -3.15527,-286"/>
<text text-anchor="middle" x="64" y="-402.8" font-family="Times,serif" font-size="14.00">Admin::OrdersController</text>
<polyline fill="none" stroke="black" points="-15.1553,-396 143.155,-396 "/>
<text text-anchor="start" x="-7.15527" y="-380.8" font-family="Times,serif" font-size="14.00">all</text>
<text text-anchor="start" x="-7.15527" y="-366.8" font-family="Times,serif" font-size="14.00">all_json</text>
<text text-anchor="start" x="-7.15527" y="-352.8" font-family="Times,serif" font-size="14.00">index</text>
<text text-anchor="start" x="-7.15527" y="-338.8" font-family="Times,serif" font-size="14.00">test</text>
<polyline fill="none" stroke="black" points="-15.1553,-332 143.155,-332 "/>
<polyline fill="none" stroke="black" points="-15.1553,-308 143.155,-308 "/>
<text text-anchor="start" x="-7.15527" y="-292.8" font-family="Times,serif" font-size="14.00">_layout</text>
</g>
<!-- Admin::PasswordsController -->
<g id="node7" class="node"><title>Admin::PasswordsController</title>
<path fill="none" stroke="black" d="M267.334,254C267.334,254 422.666,254 422.666,254 428.666,254 434.666,248 434.666,242 434.666,242 434.666,174 434.666,174 434.666,168 428.666,162 422.666,162 422.666,162 267.334,162 267.334,162 261.334,162 255.334,168 255.334,174 255.334,174 255.334,242 255.334,242 255.334,248 261.334,254 267.334,254"/>
<text text-anchor="middle" x="345" y="177.2" font-family="Times,serif" font-size="14.00">Admin::PasswordsController</text>
<polyline fill="none" stroke="black" points="255.334,184 434.666,184 "/>
<polyline fill="none" stroke="black" points="255.334,208 434.666,208 "/>
<polyline fill="none" stroke="black" points="255.334,232 434.666,232 "/>
<text text-anchor="start" x="263.334" y="247.2" font-family="Times,serif" font-size="14.00">_layout</text>
</g>
<!-- Admin::RegistrationsController -->
<g id="node8" class="node"><title>Admin::RegistrationsController</title>
<path fill="none" stroke="black" d="M-153.048,-166C-153.048,-166 17.0483,-166 17.0483,-166 23.0483,-166 29.0483,-172 29.0483,-178 29.0483,-178 29.0483,-246 29.0483,-246 29.0483,-252 23.0483,-258 17.0483,-258 17.0483,-258 -153.048,-258 -153.048,-258 -159.048,-258 -165.048,-252 -165.048,-246 -165.048,-246 -165.048,-178 -165.048,-178 -165.048,-172 -159.048,-166 -153.048,-166"/>
<text text-anchor="middle" x="-68" y="-242.8" font-family="Times,serif" font-size="14.00">Admin::RegistrationsController</text>
<polyline fill="none" stroke="black" points="-165.048,-236 29.0483,-236 "/>
<polyline fill="none" stroke="black" points="-165.048,-212 29.0483,-212 "/>
<polyline fill="none" stroke="black" points="-165.048,-188 29.0483,-188 "/>
<text text-anchor="start" x="-157.048" y="-172.8" font-family="Times,serif" font-size="14.00">_layout</text>
</g>
<!-- Admin::SessionsController -->
<g id="node9" class="node"><title>Admin::SessionsController</title>
<path fill="none" stroke="black" d="M-288.224,299C-288.224,299 -143.776,299 -143.776,299 -137.776,299 -131.776,293 -131.776,287 -131.776,287 -131.776,219 -131.776,219 -131.776,213 -137.776,207 -143.776,207 -143.776,207 -288.224,207 -288.224,207 -294.224,207 -300.224,213 -300.224,219 -300.224,219 -300.224,287 -300.224,287 -300.224,293 -294.224,299 -288.224,299"/>
<text text-anchor="middle" x="-216" y="222.2" font-family="Times,serif" font-size="14.00">Admin::SessionsController</text>
<polyline fill="none" stroke="black" points="-300.224,229 -131.776,229 "/>
<polyline fill="none" stroke="black" points="-300.224,253 -131.776,253 "/>
<polyline fill="none" stroke="black" points="-300.224,277 -131.776,277 "/>
<text text-anchor="start" x="-292.224" y="292.2" font-family="Times,serif" font-size="14.00">_layout</text>
</g>
<!-- Admin::UnlocksController -->
<g id="node10" class="node"><title>Admin::UnlocksController</title>
<path fill="none" stroke="black" d="M326.562,-1C326.562,-1 469.438,-1 469.438,-1 475.438,-1 481.438,-7 481.438,-13 481.438,-13 481.438,-81 481.438,-81 481.438,-87 475.438,-93 469.438,-93 469.438,-93 326.562,-93 326.562,-93 320.562,-93 314.562,-87 314.562,-81 314.562,-81 314.562,-13 314.562,-13 314.562,-7 320.562,-1 326.562,-1"/>
<text text-anchor="middle" x="398" y="-77.8" font-family="Times,serif" font-size="14.00">Admin::UnlocksController</text>
<polyline fill="none" stroke="black" points="314.562,-71 481.438,-71 "/>
<polyline fill="none" stroke="black" points="314.562,-47 481.438,-47 "/>
<polyline fill="none" stroke="black" points="314.562,-23 481.438,-23 "/>
<text text-anchor="start" x="322.562" y="-7.8" font-family="Times,serif" font-size="14.00">_layout</text>
</g>
<!-- Admin::WelcomeController -->
<g id="node11" class="node"><title>Admin::WelcomeController</title>
<path fill="none" stroke="black" d="M311.633,-301C311.633,-301 460.367,-301 460.367,-301 466.367,-301 472.367,-307 472.367,-313 472.367,-313 472.367,-379 472.367,-379 472.367,-385 466.367,-391 460.367,-391 460.367,-391 311.633,-391 311.633,-391 305.633,-391 299.633,-385 299.633,-379 299.633,-379 299.633,-313 299.633,-313 299.633,-307 305.633,-301 311.633,-301"/>
<text text-anchor="middle" x="386" y="-375.8" font-family="Times,serif" font-size="14.00">Admin::WelcomeController</text>
<polyline fill="none" stroke="black" points="299.633,-369 472.367,-369 "/>
<text text-anchor="start" x="307.633" y="-353.8" font-family="Times,serif" font-size="14.00">index</text>
<polyline fill="none" stroke="black" points="299.633,-347 472.367,-347 "/>
<polyline fill="none" stroke="black" points="299.633,-323 472.367,-323 "/>
<text text-anchor="start" x="307.633" y="-307.8" font-family="Times,serif" font-size="14.00">_layout</text>
</g>
<!-- ApplicationController -->
<g id="node12" class="node"><title>ApplicationController</title>
<path fill="none" stroke="black" d="M147.034,134C147.034,134 320.966,134 320.966,134 326.966,134 332.966,128 332.966,122 332.966,122 332.966,42 332.966,42 332.966,36 326.966,30 320.966,30 320.966,30 147.034,30 147.034,30 141.034,30 135.034,36 135.034,42 135.034,42 135.034,122 135.034,122 135.034,128 141.034,134 147.034,134"/>
<text text-anchor="middle" x="234" y="45.2" font-family="Times,serif" font-size="14.00">ApplicationController</text>
<polyline fill="none" stroke="black" points="135.034,52 332.966,52 "/>
<text text-anchor="start" x="143.034" y="67.2" font-family="Times,serif" font-size="14.00">after_sign_out_path_for</text>
<text text-anchor="start" x="143.034" y="81.2" font-family="Times,serif" font-size="14.00">configure_permitted_parameters</text>
<polyline fill="none" stroke="black" points="135.034,88 332.966,88 "/>
<polyline fill="none" stroke="black" points="135.034,112 332.966,112 "/>
<text text-anchor="start" x="143.034" y="127.2" font-family="Times,serif" font-size="14.00">_layout</text>
</g>
<!-- AuthenticationController -->
<g id="node13" class="node"><title>AuthenticationController</title>
<path fill="none" stroke="black" d="M416.627,-121C416.627,-121 549.373,-121 549.373,-121 555.373,-121 561.373,-127 561.373,-133 561.373,-133 561.373,-199 561.373,-199 561.373,-205 555.373,-211 549.373,-211 549.373,-211 416.627,-211 416.627,-211 410.627,-211 404.627,-205 404.627,-199 404.627,-199 404.627,-133 404.627,-133 404.627,-127 410.627,-121 416.627,-121"/>
<text text-anchor="middle" x="483" y="-195.8" font-family="Times,serif" font-size="14.00">AuthenticationController</text>
<polyline fill="none" stroke="black" points="404.627,-189 561.373,-189 "/>
<text text-anchor="start" x="412.627" y="-173.8" font-family="Times,serif" font-size="14.00">index</text>
<polyline fill="none" stroke="black" points="404.627,-167 561.373,-167 "/>
<polyline fill="none" stroke="black" points="404.627,-143 561.373,-143 "/>
<text text-anchor="start" x="412.627" y="-127.8" font-family="Times,serif" font-size="14.00">_layout</text>
</g>
<!-- BurgerBitchController -->
<g id="node14" class="node"><title>BurgerBitchController</title>
<path fill="none" stroke="black" d="M-183.148,-406C-183.148,-406 -62.8516,-406 -62.8516,-406 -56.8516,-406 -50.8516,-412 -50.8516,-418 -50.8516,-418 -50.8516,-484 -50.8516,-484 -50.8516,-490 -56.8516,-496 -62.8516,-496 -62.8516,-496 -183.148,-496 -183.148,-496 -189.148,-496 -195.148,-490 -195.148,-484 -195.148,-484 -195.148,-418 -195.148,-418 -195.148,-412 -189.148,-406 -183.148,-406"/>
<text text-anchor="middle" x="-123" y="-480.8" font-family="Times,serif" font-size="14.00">BurgerBitchController</text>
<polyline fill="none" stroke="black" points="-195.148,-474 -50.8516,-474 "/>
<text text-anchor="start" x="-187.148" y="-458.8" font-family="Times,serif" font-size="14.00">after_sign_in_path_for</text>
<polyline fill="none" stroke="black" points="-195.148,-452 -50.8516,-452 "/>
<polyline fill="none" stroke="black" points="-195.148,-428 -50.8516,-428 "/>
<text text-anchor="start" x="-187.148" y="-412.8" font-family="Times,serif" font-size="14.00">_layout</text>
</g>
<!-- DishesController -->
<g id="node15" class="node"><title>DishesController</title>
<path fill="none" stroke="black" d="M-407.828,419C-407.828,419 -320.172,419 -320.172,419 -314.172,419 -308.172,413 -308.172,407 -308.172,407 -308.172,341 -308.172,341 -308.172,335 -314.172,329 -320.172,329 -320.172,329 -407.828,329 -407.828,329 -413.828,329 -419.828,335 -419.828,341 -419.828,341 -419.828,407 -419.828,407 -419.828,413 -413.828,419 -407.828,419"/>
<text text-anchor="middle" x="-364" y="344.2" font-family="Times,serif" font-size="14.00">DishesController</text>
<polyline fill="none" stroke="black" points="-419.828,351 -308.172,351 "/>
<text text-anchor="start" x="-411.828" y="366.2" font-family="Times,serif" font-size="14.00">create</text>
<polyline fill="none" stroke="black" points="-419.828,373 -308.172,373 "/>
<polyline fill="none" stroke="black" points="-419.828,397 -308.172,397 "/>
<text text-anchor="start" x="-411.828" y="412.2" font-family="Times,serif" font-size="14.00">_layout</text>
</g>
<!-- OrdersController -->
<g id="node16" class="node"><title>OrdersController</title>
<path fill="none" stroke="black" d="M-302.821,149C-302.821,149 -215.179,149 -215.179,149 -209.179,149 -203.179,143 -203.179,137 -203.179,137 -203.179,1 -203.179,1 -203.179,-5 -209.179,-11 -215.179,-11 -215.179,-11 -302.821,-11 -302.821,-11 -308.821,-11 -314.821,-5 -314.821,1 -314.821,1 -314.821,137 -314.821,137 -314.821,143 -308.821,149 -302.821,149"/>
<text text-anchor="middle" x="-259" y="4.2" font-family="Times,serif" font-size="14.00">OrdersController</text>
<polyline fill="none" stroke="black" points="-314.821,11 -203.179,11 "/>
<text text-anchor="start" x="-306.821" y="26.2" font-family="Times,serif" font-size="14.00">create</text>
<text text-anchor="start" x="-306.821" y="40.2" font-family="Times,serif" font-size="14.00">destroy</text>
<text text-anchor="start" x="-306.821" y="54.2" font-family="Times,serif" font-size="14.00">index</text>
<text text-anchor="start" x="-306.821" y="68.2" font-family="Times,serif" font-size="14.00">new</text>
<polyline fill="none" stroke="black" points="-314.821,75 -203.179,75 "/>
<polyline fill="none" stroke="black" points="-314.821,99 -203.179,99 "/>
<text text-anchor="start" x="-306.821" y="114.2" font-family="Times,serif" font-size="14.00">_layout</text>
<text text-anchor="start" x="-306.821" y="128.2" font-family="Times,serif" font-size="14.00">check_name</text>
<text text-anchor="start" x="-306.821" y="142.2" font-family="Times,serif" font-size="14.00">check_order</text>
</g>
<!-- RestaurantsController -->
<g id="node17" class="node"><title>RestaurantsController</title>
<path fill="none" stroke="black" d="M-348.431,-406C-348.431,-406 -233.569,-406 -233.569,-406 -227.569,-406 -221.569,-412 -221.569,-418 -221.569,-418 -221.569,-486 -221.569,-486 -221.569,-492 -227.569,-498 -233.569,-498 -233.569,-498 -348.431,-498 -348.431,-498 -354.431,-498 -360.431,-492 -360.431,-486 -360.431,-486 -360.431,-418 -360.431,-418 -360.431,-412 -354.431,-406 -348.431,-406"/>
<text text-anchor="middle" x="-291" y="-482.8" font-family="Times,serif" font-size="14.00">RestaurantsController</text>
<polyline fill="none" stroke="black" points="-360.431,-476 -221.569,-476 "/>
<polyline fill="none" stroke="black" points="-360.431,-452 -221.569,-452 "/>
<polyline fill="none" stroke="black" points="-360.431,-428 -221.569,-428 "/>
<text text-anchor="start" x="-352.431" y="-412.8" font-family="Times,serif" font-size="14.00">_layout</text>
</g>
<!-- SessionsController -->
<g id="node18" class="node"><title>SessionsController</title>
<path fill="none" stroke="black" d="M-377.89,-286C-377.89,-286 -280.11,-286 -280.11,-286 -274.11,-286 -268.11,-292 -268.11,-298 -268.11,-298 -268.11,-364 -268.11,-364 -268.11,-370 -274.11,-376 -280.11,-376 -280.11,-376 -377.89,-376 -377.89,-376 -383.89,-376 -389.89,-370 -389.89,-364 -389.89,-364 -389.89,-298 -389.89,-298 -389.89,-292 -383.89,-286 -377.89,-286"/>
<text text-anchor="middle" x="-329" y="-360.8" font-family="Times,serif" font-size="14.00">SessionsController</text>
<polyline fill="none" stroke="black" points="-389.89,-354 -268.11,-354 "/>
<text text-anchor="start" x="-381.89" y="-338.8" font-family="Times,serif" font-size="14.00">destroy</text>
<polyline fill="none" stroke="black" points="-389.89,-332 -268.11,-332 "/>
<polyline fill="none" stroke="black" points="-389.89,-308 -268.11,-308 "/>
<text text-anchor="start" x="-381.89" y="-292.8" font-family="Times,serif" font-size="14.00">_layout</text>
</g>
<!-- Users::ConfirmationsController -->
<g id="node19" class="node"><title>Users::ConfirmationsController</title>
<path fill="none" stroke="black" d="M42.3379,254C42.3379,254 211.662,254 211.662,254 217.662,254 223.662,248 223.662,242 223.662,242 223.662,174 223.662,174 223.662,168 217.662,162 211.662,162 211.662,162 42.3379,162 42.3379,162 36.3379,162 30.3379,168 30.3379,174 30.3379,174 30.3379,242 30.3379,242 30.3379,248 36.3379,254 42.3379,254"/>
<text text-anchor="middle" x="127" y="177.2" font-family="Times,serif" font-size="14.00">Users::ConfirmationsController</text>
<polyline fill="none" stroke="black" points="30.3379,184 223.662,184 "/>
<polyline fill="none" stroke="black" points="30.3379,208 223.662,208 "/>
<polyline fill="none" stroke="black" points="30.3379,232 223.662,232 "/>
<text text-anchor="start" x="38.3379" y="247.2" font-family="Times,serif" font-size="14.00">_layout</text>
</g>
<!-- Users::OmniauthCallbacksController -->
<g id="node20" class="node"><title>Users::OmniauthCallbacksController</title>
<path fill="none" stroke="black" d="M-108.204,59C-108.204,59 92.2036,59 92.2036,59 98.2036,59 104.204,53 104.204,47 104.204,47 104.204,-21 104.204,-21 104.204,-27 98.2036,-33 92.2036,-33 92.2036,-33 -108.204,-33 -108.204,-33 -114.204,-33 -120.204,-27 -120.204,-21 -120.204,-21 -120.204,47 -120.204,47 -120.204,53 -114.204,59 -108.204,59"/>
<text text-anchor="middle" x="-8" y="-17.8" font-family="Times,serif" font-size="14.00">Users::OmniauthCallbacksController</text>
<polyline fill="none" stroke="black" points="-120.204,-11 104.204,-11 "/>
<polyline fill="none" stroke="black" points="-120.204,13 104.204,13 "/>
<polyline fill="none" stroke="black" points="-120.204,37 104.204,37 "/>
<text text-anchor="start" x="-112.204" y="52.2" font-family="Times,serif" font-size="14.00">_layout</text>
</g>
<!-- Users::PasswordsController -->
<g id="node21" class="node"><title>Users::PasswordsController</title>
<path fill="none" stroke="black" d="M-318.162,-46C-318.162,-46 -169.838,-46 -169.838,-46 -163.838,-46 -157.838,-52 -157.838,-58 -157.838,-58 -157.838,-126 -157.838,-126 -157.838,-132 -163.838,-138 -169.838,-138 -169.838,-138 -318.162,-138 -318.162,-138 -324.162,-138 -330.162,-132 -330.162,-126 -330.162,-126 -330.162,-58 -330.162,-58 -330.162,-52 -324.162,-46 -318.162,-46"/>
<text text-anchor="middle" x="-244" y="-122.8" font-family="Times,serif" font-size="14.00">Users::PasswordsController</text>
<polyline fill="none" stroke="black" points="-330.162,-116 -157.838,-116 "/>
<polyline fill="none" stroke="black" points="-330.162,-92 -157.838,-92 "/>
<polyline fill="none" stroke="black" points="-330.162,-68 -157.838,-68 "/>
<text text-anchor="start" x="-322.162" y="-52.8" font-family="Times,serif" font-size="14.00">_layout</text>
</g>
<!-- Users::RegistrationsController -->
<g id="node22" class="node"><title>Users::RegistrationsController</title>
<path fill="none" stroke="black" d="M-227.545,-286C-227.545,-286 -64.4551,-286 -64.4551,-286 -58.4551,-286 -52.4551,-292 -52.4551,-298 -52.4551,-298 -52.4551,-366 -52.4551,-366 -52.4551,-372 -58.4551,-378 -64.4551,-378 -64.4551,-378 -227.545,-378 -227.545,-378 -233.545,-378 -239.545,-372 -239.545,-366 -239.545,-366 -239.545,-298 -239.545,-298 -239.545,-292 -233.545,-286 -227.545,-286"/>
<text text-anchor="middle" x="-146" y="-362.8" font-family="Times,serif" font-size="14.00">Users::RegistrationsController</text>
<polyline fill="none" stroke="black" points="-239.545,-356 -52.4551,-356 "/>
<polyline fill="none" stroke="black" points="-239.545,-332 -52.4551,-332 "/>
<polyline fill="none" stroke="black" points="-239.545,-308 -52.4551,-308 "/>
<text text-anchor="start" x="-231.545" y="-292.8" font-family="Times,serif" font-size="14.00">_layout</text>
</g>
<!-- Users::SessionsController -->
<g id="node23" class="node"><title>Users::SessionsController</title>
<path fill="none" stroke="black" d="M-347.721,-166C-347.721,-166 -210.279,-166 -210.279,-166 -204.279,-166 -198.279,-172 -198.279,-178 -198.279,-178 -198.279,-246 -198.279,-246 -198.279,-252 -204.279,-258 -210.279,-258 -210.279,-258 -347.721,-258 -347.721,-258 -353.721,-258 -359.721,-252 -359.721,-246 -359.721,-246 -359.721,-178 -359.721,-178 -359.721,-172 -353.721,-166 -347.721,-166"/>
<text text-anchor="middle" x="-279" y="-242.8" font-family="Times,serif" font-size="14.00">Users::SessionsController</text>
<polyline fill="none" stroke="black" points="-359.721,-236 -198.279,-236 "/>
<polyline fill="none" stroke="black" points="-359.721,-212 -198.279,-212 "/>
<polyline fill="none" stroke="black" points="-359.721,-188 -198.279,-188 "/>
<text text-anchor="start" x="-351.721" y="-172.8" font-family="Times,serif" font-size="14.00">_layout</text>
</g>
<!-- Users::UnlocksController -->
<g id="node24" class="node"><title>Users::UnlocksController</title>
<path fill="none" stroke="black" d="M252.065,374C252.065,374 387.935,374 387.935,374 393.935,374 399.935,368 399.935,362 399.935,362 399.935,294 399.935,294 399.935,288 393.935,282 387.935,282 387.935,282 252.065,282 252.065,282 246.065,282 240.065,288 240.065,294 240.065,294 240.065,362 240.065,362 240.065,368 246.065,374 252.065,374"/>
<text text-anchor="middle" x="320" y="297.2" font-family="Times,serif" font-size="14.00">Users::UnlocksController</text>
<polyline fill="none" stroke="black" points="240.065,304 399.935,304 "/>
<polyline fill="none" stroke="black" points="240.065,328 399.935,328 "/>
<polyline fill="none" stroke="black" points="240.065,352 399.935,352 "/>
<text text-anchor="start" x="248.065" y="367.2" font-family="Times,serif" font-size="14.00">_layout</text>
</g>
<!-- UsersController -->
<g id="node25" class="node"><title>UsersController</title>
<path fill="none" stroke="black" d="M432.286,-421C432.286,-421 513.714,-421 513.714,-421 519.714,-421 525.714,-427 525.714,-433 525.714,-433 525.714,-527 525.714,-527 525.714,-533 519.714,-539 513.714,-539 513.714,-539 432.286,-539 432.286,-539 426.286,-539 420.286,-533 420.286,-527 420.286,-527 420.286,-433 420.286,-433 420.286,-427 426.286,-421 432.286,-421"/>
<text text-anchor="middle" x="473" y="-523.8" font-family="Times,serif" font-size="14.00">UsersController</text>
<polyline fill="none" stroke="black" points="420.286,-517 525.714,-517 "/>
<text text-anchor="start" x="428.286" y="-501.8" font-family="Times,serif" font-size="14.00">edit</text>
<text text-anchor="start" x="428.286" y="-487.8" font-family="Times,serif" font-size="14.00">update</text>
<polyline fill="none" stroke="black" points="420.286,-481 525.714,-481 "/>
<polyline fill="none" stroke="black" points="420.286,-457 525.714,-457 "/>
<text text-anchor="start" x="428.286" y="-441.8" font-family="Times,serif" font-size="14.00">_layout</text>
<text text-anchor="start" x="428.286" y="-427.8" font-family="Times,serif" font-size="14.00">user_params</text>
</g>
<!-- WelcomeController -->
<g id="node26" class="node"><title>WelcomeController</title>
<path fill="none" stroke="black" d="M281.967,-421C281.967,-421 384.033,-421 384.033,-421 390.033,-421 396.033,-427 396.033,-433 396.033,-433 396.033,-499 396.033,-499 396.033,-505 390.033,-511 384.033,-511 384.033,-511 281.967,-511 281.967,-511 275.967,-511 269.967,-505 269.967,-499 269.967,-499 269.967,-433 269.967,-433 269.967,-427 275.967,-421 281.967,-421"/>
<text text-anchor="middle" x="333" y="-495.8" font-family="Times,serif" font-size="14.00">WelcomeController</text>
<polyline fill="none" stroke="black" points="269.967,-489 396.033,-489 "/>
<text text-anchor="start" x="277.967" y="-473.8" font-family="Times,serif" font-size="14.00">index</text>
<polyline fill="none" stroke="black" points="269.967,-467 396.033,-467 "/>
<polyline fill="none" stroke="black" points="269.967,-443 396.033,-443 "/>
<text text-anchor="start" x="277.967" y="-427.8" font-family="Times,serif" font-size="14.00">_layout</text>
</g>
</g>
</svg>
