<?xml version="1.0" encoding="UTF-8" standalone="no"?>
<!DOCTYPE svg PUBLIC "-//W3C//DTD SVG 1.1//EN"
 "http://www.w3.org/Graphics/SVG/1.1/DTD/svg11.dtd">
<!-- Generated by graphviz version 2.38.0 (20140413.2041)
 -->
<!-- Title: controllers_diagram Pages: 1 -->
<svg width="592pt" height="577pt"
 viewBox="0.00 0.00 592.10 577.00" xmlns="http://www.w3.org/2000/svg" xmlns:xlink="http://www.w3.org/1999/xlink">
<g id="graph0" class="graph" transform="scale(1 1) rotate(0) translate(241.821 335.5)">
<title>controllers_diagram</title>
<polygon fill="white" stroke="none" points="-241.821,241.5 -241.821,-335.5 350.276,-335.5 350.276,241.5 -241.821,241.5"/>
<!-- _diagram_info -->
<g id="node1" class="node"><title>_diagram_info</title>
<text text-anchor="start" x="92.3123" y="-143.1" font-family="Times,serif" font-size="13.00">Controllers diagram</text>
<text text-anchor="start" x="92.3123" y="-130.1" font-family="Times,serif" font-size="13.00">Date: Apr 01 2015 &***REMOVED***45; 12:31</text>
<text text-anchor="start" x="92.3123" y="-117.1" font-family="Times,serif" font-size="13.00">Migration version: 20150327093513</text>
<text text-anchor="start" x="92.3123" y="-104.1" font-family="Times,serif" font-size="13.00">Generated by RailRoady 1.3.0</text>
<text text-anchor="start" x="92.3123" y="-91.1" font-family="Times,serif" font-size="13.00">http://railroady.prestonlee.com</text>
</g>
<!-- Admin::AdminsController -->
<g id="node2" class="node"><title>Admin::AdminsController</title>
<path fill="none" stroke="black" d="M193.724,-183C193.724,-183 334.276,-183 334.276,-183 340.276,-183 346.276,-189 346.276,-195 346.276,-195 346.276,-261 346.276,-261 346.276,-267 340.276,-273 334.276,-273 334.276,-273 193.724,-273 193.724,-273 187.724,-273 181.724,-267 181.724,-261 181.724,-261 181.724,-195 181.724,-195 181.724,-189 187.724,-183 193.724,-183"/>
<text text-anchor="middle" x="264" y="-257.8" font-family="Times,serif" font-size="14.00">Admin::AdminsController</text>
<polyline fill="none" stroke="black" points="181.724,-251 346.276,-251 "/>
<text text-anchor="start" x="189.724" y="-235.8" font-family="Times,serif" font-size="14.00">index</text>
<polyline fill="none" stroke="black" points="181.724,-229 346.276,-229 "/>
<polyline fill="none" stroke="black" points="181.724,-205 346.276,-205 "/>
<text text-anchor="start" x="189.724" y="-189.8" font-family="Times,serif" font-size="14.00">_layout</text>
</g>
<!-- Admin::ApplicationController -->
<g id="node3" class="node"><title>Admin::ApplicationController</title>
<path fill="none" stroke="black" d="M-86.1553,55C-86.1553,55 76.1553,55 76.1553,55 82.1553,55 88.1553,49 88.1553,43 88.1553,43 88.1553,-37 88.1553,-37 88.1553,-43 82.1553,-49 76.1553,-49 76.1553,-49 -86.1553,-49 -86.1553,-49 -92.1553,-49 -98.1553,-43 -98.1553,-37 -98.1553,-37 -98.1553,43 -98.1553,43 -98.1553,49 -92.1553,55 -86.1553,55"/>
<text text-anchor="middle" x="-5" y="-33.8" font-family="Times,serif" font-size="14.00">Admin::ApplicationController</text>
<polyline fill="none" stroke="black" points="-98.1553,-27 88.1553,-27 "/>
<text text-anchor="start" x="-90.1553" y="-11.8" font-family="Times,serif" font-size="14.00">after_sign_in_path_for</text>
<text text-anchor="start" x="-90.1553" y="2.2" font-family="Times,serif" font-size="14.00">after_sign_out_path_for</text>
<polyline fill="none" stroke="black" points="-98.1553,9 88.1553,9 "/>
<polyline fill="none" stroke="black" points="-98.1553,33 88.1553,33 "/>
<text text-anchor="start" x="-90.1553" y="48.2" font-family="Times,serif" font-size="14.00">_layout</text>
</g>
<!-- Admin::WelcomeController -->
<g id="node4" class="node"><title>Admin::WelcomeController</title>
<path fill="none" stroke="black" d="M123.633,111C123.633,111 272.367,111 272.367,111 278.367,111 284.367,105 284.367,99 284.367,99 284.367,31 284.367,31 284.367,25 278.367,19 272.367,19 272.367,19 123.633,19 123.633,19 117.633,19 111.633,25 111.633,31 111.633,31 111.633,99 111.633,99 111.633,105 117.633,111 123.633,111"/>
<text text-anchor="middle" x="198" y="34.2" font-family="Times,serif" font-size="14.00">Admin::WelcomeController</text>
<polyline fill="none" stroke="black" points="111.633,41 284.367,41 "/>
<polyline fill="none" stroke="black" points="111.633,65 284.367,65 "/>
<polyline fill="none" stroke="black" points="111.633,89 284.367,89 "/>
<text text-anchor="start" x="119.633" y="104.2" font-family="Times,serif" font-size="14.00">_layout</text>
</g>
<!-- ApplicationController -->
<g id="node5" class="node"><title>ApplicationController</title>
<path fill="none" stroke="black" d="M-169.821,181C-169.821,181 -54.1792,181 -54.1792,181 -48.1792,181 -42.1792,175 -42.1792,169 -42.1792,169 -42.1792,101 -42.1792,101 -42.1792,95 -48.1792,89 -54.1792,89 -54.1792,89 -169.821,89 -169.821,89 -175.821,89 -181.821,95 -181.821,101 -181.821,101 -181.821,169 -181.821,169 -181.821,175 -175.821,181 -169.821,181"/>
<text text-anchor="middle" x="-112" y="104.2" font-family="Times,serif" font-size="14.00">ApplicationController</text>
<polyline fill="none" stroke="black" points="-181.821,111 -42.1792,111 "/>
<polyline fill="none" stroke="black" points="-181.821,135 -42.1792,135 "/>
<polyline fill="none" stroke="black" points="-181.821,159 -42.1792,159 "/>
<text text-anchor="start" x="-173.821" y="174.2" font-family="Times,serif" font-size="14.00">_layout</text>
</g>
<!-- BurgerBitchController -->
<g id="node6" class="node"><title>BurgerBitchController</title>
<path fill="none" stroke="black" d="M-85.6484,-99C-85.6484,-99 41.6484,-99 41.6484,-99 47.6484,-99 53.6484,-105 53.6484,-111 53.6484,-111 53.6484,-191 53.6484,-191 53.6484,-197 47.6484,-203 41.6484,-203 41.6484,-203 -85.6484,-203 -85.6484,-203 -91.6484,-203 -97.6484,-197 -97.6484,-191 -97.6484,-191 -97.6484,-111 -97.6484,-111 -97.6484,-105 -91.6484,-99 -85.6484,-99"/>
<text text-anchor="middle" x="-22" y="-187.8" font-family="Times,serif" font-size="14.00">BurgerBitchController</text>
<polyline fill="none" stroke="black" points="-97.6484,-181 53.6484,-181 "/>
<text text-anchor="start" x="-89.6484" y="-165.8" font-family="Times,serif" font-size="14.00">after_sign_in_path_for</text>
<text text-anchor="start" x="-89.6484" y="-151.8" font-family="Times,serif" font-size="14.00">after_sign_out_path_for</text>
<polyline fill="none" stroke="black" points="-97.6484,-145 53.6484,-145 "/>
<polyline fill="none" stroke="black" points="-97.6484,-121 53.6484,-121 "/>
<text text-anchor="start" x="-89.6484" y="-105.8" font-family="Times,serif" font-size="14.00">_layout</text>
</g>
<!-- DishesController -->
<g id="node7" class="node"><title>DishesController</title>
<path fill="none" stroke="black" d="M54.1724,-239C54.1724,-239 141.828,-239 141.828,-239 147.828,-239 153.828,-245 153.828,-251 153.828,-251 153.828,-317 153.828,-317 153.828,-323 147.828,-329 141.828,-329 141.828,-329 54.1724,-329 54.1724,-329 48.1724,-329 42.1724,-323 42.1724,-317 42.1724,-317 42.1724,-251 42.1724,-251 42.1724,-245 48.1724,-239 54.1724,-239"/>
<text text-anchor="middle" x="98" y="-313.8" font-family="Times,serif" font-size="14.00">DishesController</text>
<polyline fill="none" stroke="black" points="42.1724,-307 153.828,-307 "/>
<text text-anchor="start" x="50.1724" y="-291.8" font-family="Times,serif" font-size="14.00">create</text>
<polyline fill="none" stroke="black" points="42.1724,-285 153.828,-285 "/>
<polyline fill="none" stroke="black" points="42.1724,-261 153.828,-261 "/>
<text text-anchor="start" x="50.1724" y="-245.8" font-family="Times,serif" font-size="14.00">_layout</text>
</g>
<!-- OrdersController -->
<g id="node8" class="node"><title>OrdersController</title>
<path fill="none" stroke="black" d="M-225.821,-1C-225.821,-1 -138.179,-1 -138.179,-1 -132.179,-1 -126.179,-7 -126.179,-13 -126.179,-13 -126.179,-107 -126.179,-107 -126.179,-113 -132.179,-119 -138.179,-119 -138.179,-119 -225.821,-119 -225.821,-119 -231.821,-119 -237.821,-113 -237.821,-107 -237.821,-107 -237.821,-13 -237.821,-13 -237.821,-7 -231.821,-1 -225.821,-1"/>
<text text-anchor="middle" x="-182" y="-103.8" font-family="Times,serif" font-size="14.00">OrdersController</text>
<polyline fill="none" stroke="black" points="-237.821,-97 -126.179,-97 "/>
<text text-anchor="start" x="-229.821" y="-81.8" font-family="Times,serif" font-size="14.00">create</text>
<text text-anchor="start" x="-229.821" y="-67.8" font-family="Times,serif" font-size="14.00">index</text>
<text text-anchor="start" x="-229.821" y="-53.8" font-family="Times,serif" font-size="14.00">new</text>
<polyline fill="none" stroke="black" points="-237.821,-47 -126.179,-47 "/>
<polyline fill="none" stroke="black" points="-237.821,-23 -126.179,-23 "/>
<text text-anchor="start" x="-229.821" y="-7.8" font-family="Times,serif" font-size="14.00">_layout</text>
</g>
<!-- RestaurantsController -->
<g id="node9" class="node"><title>RestaurantsController</title>
<path fill="none" stroke="black" d="M11.5688,237C11.5688,237 126.431,237 126.431,237 132.431,237 138.431,231 138.431,225 138.431,225 138.431,157 138.431,157 138.431,151 132.431,145 126.431,145 126.431,145 11.5688,145 11.5688,145 5.56885,145 -0.431152,151 -0.431152,157 -0.431152,157 -0.431152,225 -0.431152,225 -0.431152,231 5.56885,237 11.5688,237"/>
<text text-anchor="middle" x="69" y="160.2" font-family="Times,serif" font-size="14.00">RestaurantsController</text>
<polyline fill="none" stroke="black" points="-0.431152,167 138.431,167 "/>
<polyline fill="none" stroke="black" points="-0.431152,191 138.431,191 "/>
<polyline fill="none" stroke="black" points="-0.431152,215 138.431,215 "/>
<text text-anchor="start" x="7.56885" y="230.2" font-family="Times,serif" font-size="14.00">_layout</text>
</g>
<!-- UsersController -->
<g id="node10" class="node"><title>UsersController</title>
<path fill="none" stroke="black" d="M-85.7139,-239C-85.7139,-239 -4.28613,-239 -4.28613,-239 1.71387,-239 7.71387,-245 7.71387,-251 7.71387,-251 7.71387,-319 7.71387,-319 7.71387,-325 1.71387,-331 -4.28613,-331 -4.28613,-331 -85.7139,-331 -85.7139,-331 -91.7139,-331 -97.7139,-325 -97.7139,-319 -97.7139,-319 -97.7139,-251 -97.7139,-251 -97.7139,-245 -91.7139,-239 -85.7139,-239"/>
<text text-anchor="middle" x="-45" y="-315.8" font-family="Times,serif" font-size="14.00">UsersController</text>
<polyline fill="none" stroke="black" points="-97.7139,-309 7.71387,-309 "/>
<polyline fill="none" stroke="black" points="-97.7139,-285 7.71387,-285 "/>
<polyline fill="none" stroke="black" points="-97.7139,-261 7.71387,-261 "/>
<text text-anchor="start" x="-89.7139" y="-245.8" font-family="Times,serif" font-size="14.00">_layout</text>
</g>
<!-- WelcomeController -->
<g id="node11" class="node"><title>WelcomeController</title>
<path fill="none" stroke="black" d="M179.967,237C179.967,237 282.033,237 282.033,237 288.033,237 294.033,231 294.033,225 294.033,225 294.033,159 294.033,159 294.033,153 288.033,147 282.033,147 282.033,147 179.967,147 179.967,147 173.967,147 167.967,153 167.967,159 167.967,159 167.967,225 167.967,225 167.967,231 173.967,237 179.967,237"/>
<text text-anchor="middle" x="231" y="162.2" font-family="Times,serif" font-size="14.00">WelcomeController</text>
<polyline fill="none" stroke="black" points="167.967,169 294.033,169 "/>
<text text-anchor="start" x="175.967" y="184.2" font-family="Times,serif" font-size="14.00">index</text>
<polyline fill="none" stroke="black" points="167.967,191 294.033,191 "/>
<polyline fill="none" stroke="black" points="167.967,215 294.033,215 "/>
<text text-anchor="start" x="175.967" y="230.2" font-family="Times,serif" font-size="14.00">_layout</text>
</g>
</g>
</svg>
