<?xml version="1.0" encoding="UTF-8" standalone="no"?>
<!DOCTYPE svg PUBLIC "-//W3C//DTD SVG 1.1//EN"
 "http://www.w3.org/Graphics/SVG/1.1/DTD/svg11.dtd">
<!-- Generated by graphviz version 2.38.0 (20140413.2041)
 -->
<!-- Title: models_diagram Pages: 1 -->
<svg width="523pt" height="225pt"
 viewBox="0.00 0.00 522.61 225.00" xmlns="http://www.w3.org/2000/svg" xmlns:xlink="http://www.w3.org/1999/xlink">
<g id="graph0" class="graph" transform="scale(1 1) rotate(0) translate(4 221)">
<title>models_diagram</title>
<polygon fill="white" stroke="none" points="-4,4 -4,-221 518.612,-221 518.612,4 -4,4"/>
<!-- _diagram_info -->
<g id="node1" class="node"><title>_diagram_info</title>
<text text-anchor="start" x="8" y="-202.6" font-family="Times,serif" font-size="13.00">Models diagram</text>
<text text-anchor="start" x="8" y="-189.6" font-family="Times,serif" font-size="13.00">Date: Apr 01 2015 &***REMOVED***45; 12:31</text>
<text text-anchor="start" x="8" y="-176.6" font-family="Times,serif" font-size="13.00">Migration version: 20150327093513</text>
<text text-anchor="start" x="8" y="-163.6" font-family="Times,serif" font-size="13.00">Generated by RailRoady 1.3.0</text>
<text text-anchor="start" x="8" y="-150.6" font-family="Times,serif" font-size="13.00">http://railroady.prestonlee.com</text>
</g>
<!-- Admin -->
<g id="node2" class="node"><title>Admin</title>
<ellipse fill="none" stroke="black" cx="259.688" cy="-180.5" rx="34.8458" ry="18"/>
<text text-anchor="middle" x="259.688" y="-176.3" font-family="Times,serif" font-size="14.00">Admin</text>
</g>
<!-- Dish -->
<g id="node3" class="node"><title>Dish</title>
<ellipse fill="none" stroke="black" cx="411.688" cy="-90" rx="27" ry="18"/>
<text text-anchor="middle" x="411.688" y="-85.8" font-family="Times,serif" font-size="14.00">Dish</text>
</g>
<!-- Order -->
<g id="node5" class="node"><title>Order</title>
<ellipse fill="none" stroke="black" cx="375.688" cy="-18" rx="30.9619" ry="18"/>
<text text-anchor="middle" x="375.688" y="-13.8" font-family="Times,serif" font-size="14.00">Order</text>
</g>
<!-- Dish&***REMOVED***45;&gt;Order -->
<g id="edge1" class="edge"><title>Dish&***REMOVED***45;&gt;Order</title>
<path fill="none" stroke="***REMOVED***88193a" d="M399.646,-65.5853C396.175,-58.837 392.372,-51.441 388.838,-44.5692"/>
<ellipse fill="none" stroke="***REMOVED***88193a" cx="401.509" cy="-69.2075" rx="4.00002" ry="4.00002"/>
<polygon fill="***REMOVED***88193a" stroke="***REMOVED***88193a" points="388.816,-44.5263 388.244,-33.5753 386.529,-40.0798 384.242,-35.6334 384.242,-35.6334 384.242,-35.6334 386.529,-40.0798 380.24,-37.6915 388.816,-44.5263 388.816,-44.5263"/>
</g>
<!-- DishType -->
<g id="node4" class="node"><title>DishType</title>
<ellipse fill="none" stroke="black" cx="356.688" cy="-180.5" rx="44.2336" ry="18"/>
<text text-anchor="middle" x="356.688" y="-176.3" font-family="Times,serif" font-size="14.00">DishType</text>
</g>
<!-- DishType&***REMOVED***45;&gt;Dish -->
<g id="edge2" class="edge"><title>DishType&***REMOVED***45;&gt;Dish</title>
<path fill="none" stroke="***REMOVED***3dc6e7" d="M371.502,-155.663C379.221,-143.242 388.648,-128.073 396.431,-115.55"/>
<ellipse fill="none" stroke="***REMOVED***3dc6e7" cx="369.144" cy="-159.456" rx="4.00002" ry="4.00002"/>
<polygon fill="***REMOVED***3dc6e7" stroke="***REMOVED***3dc6e7" points="396.481,-115.469 405.582,-109.351 399.12,-111.222 401.76,-106.975 401.76,-106.975 401.76,-106.975 399.12,-111.222 397.937,-104.6 396.481,-115.469 396.481,-115.469"/>
</g>
<!-- Restaurant -->
<g id="node6" class="node"><title>Restaurant</title>
<ellipse fill="none" stroke="black" cx="466.688" cy="-180.5" rx="47.8496" ry="18"/>
<text text-anchor="middle" x="466.688" y="-176.3" font-family="Times,serif" font-size="14.00">Restaurant</text>
</g>
<!-- Restaurant&***REMOVED***45;&gt;Dish -->
<g id="edge3" class="edge"><title>Restaurant&***REMOVED***45;&gt;Dish</title>
<path fill="none" stroke="***REMOVED***63640f" d="M451.874,-155.663C444.154,-143.242 434.728,-128.073 426.945,-115.55"/>
<ellipse fill="none" stroke="***REMOVED***63640f" cx="454.231" cy="-159.456" rx="4.00002" ry="4.00002"/>
<polygon fill="***REMOVED***63640f" stroke="***REMOVED***63640f" points="426.894,-115.469 425.438,-104.6 424.255,-111.222 421.616,-106.975 421.616,-106.975 421.616,-106.975 424.255,-111.222 417.794,-109.351 426.894,-115.469 426.894,-115.469"/>
</g>
<!-- User -->
<g id="node7" class="node"><title>User</title>
<ellipse fill="none" stroke="black" cx="339.688" cy="-90" rx="27" ry="18"/>
<text text-anchor="middle" x="339.688" y="-85.8" font-family="Times,serif" font-size="14.00">User</text>
</g>
<!-- User&***REMOVED***45;&gt;Order -->
<g id="edge4" class="edge"><title>User&***REMOVED***45;&gt;Order</title>
<path fill="none" stroke="***REMOVED***ccb65f" d="M351.73,-65.5853C355.2,-58.837 359.004,-51.441 362.538,-44.5692"/>
<ellipse fill="none" stroke="***REMOVED***ccb65f" cx="349.867" cy="-69.2075" rx="4.00002" ry="4.00002"/>
<polygon fill="***REMOVED***ccb65f" stroke="***REMOVED***ccb65f" points="362.56,-44.5263 371.135,-37.6915 364.847,-40.0798 367.133,-35.6334 367.133,-35.6334 367.133,-35.6334 364.847,-40.0798 363.132,-33.5753 362.56,-44.5263 362.56,-44.5263"/>
</g>
</g>
</svg>
