<?xml version="1.0" encoding="UTF-8" standalone="no"?>
<!DOCTYPE svg PUBLIC "-//W3C//DTD SVG 1.1//EN"
 "http://www.w3.org/Graphics/SVG/1.1/DTD/svg11.dtd">
<!-- Generated by graphviz version 2.38.0 (20140413.2041)
 -->
<!-- Title: models_diagram Pages: 1 -->
<svg width="590pt" height="674pt"
 viewBox="0.00 0.00 590.12 674.00" xmlns="http://www.w3.org/2000/svg" xmlns:xlink="http://www.w3.org/1999/xlink">
<g id="graph0" class="graph" transform="scale(1 1) rotate(0) translate(4 670)">
<title>models_diagram</title>
<polygon fill="white" stroke="none" points="-4,4 -4,-670 586.121,-670 586.121,4 -4,4"/>
<!-- _diagram_info -->
<g id="node1" class="node"><title>_diagram_info</title>
<text text-anchor="start" x="8" y="-574.6" font-family="Times,serif" font-size="13.00">Models diagram</text>
<text text-anchor="start" x="8" y="-561.6" font-family="Times,serif" font-size="13.00">Date: Apr 20 2015 &***REMOVED***45; 13:48</text>
<text text-anchor="start" x="8" y="-548.6" font-family="Times,serif" font-size="13.00">Migration version: 20150418092115</text>
<text text-anchor="start" x="8" y="-535.6" font-family="Times,serif" font-size="13.00">Generated by RailRoady 1.3.0</text>
<text text-anchor="start" x="8" y="-522.6" font-family="Times,serif" font-size="13.00">http://railroady.prestonlee.com</text>
</g>
<!-- Admin -->
<g id="node2" class="node"><title>Admin</title>
<path fill="none" stroke="black" d="M237.172,-439.5C237.172,-439.5 417.728,-439.5 417.728,-439.5 423.728,-439.5 429.728,-445.5 429.728,-451.5 429.728,-451.5 429.728,-653.5 429.728,-653.5 429.728,-659.5 423.728,-665.5 417.728,-665.5 417.728,-665.5 237.172,-665.5 237.172,-665.5 231.172,-665.5 225.172,-659.5 225.172,-653.5 225.172,-653.5 225.172,-451.5 225.172,-451.5 225.172,-445.5 231.172,-439.5 237.172,-439.5"/>
<text text-anchor="middle" x="327.45" y="-650.3" font-family="Times,serif" font-size="14.00">Admin</text>
<polyline fill="none" stroke="black" points="225.172,-643.5 429.728,-643.5 "/>
<text text-anchor="start" x="233.172" y="-628.3" font-family="Times,serif" font-size="14.00">id :integer</text>
<text text-anchor="start" x="233.172" y="-614.3" font-family="Times,serif" font-size="14.00">name :string</text>
<text text-anchor="start" x="233.172" y="-600.3" font-family="Times,serif" font-size="14.00">created_at :datetime</text>
<text text-anchor="start" x="233.172" y="-586.3" font-family="Times,serif" font-size="14.00">updated_at :datetime</text>
<text text-anchor="start" x="233.172" y="-572.3" font-family="Times,serif" font-size="14.00">email :string</text>
<text text-anchor="start" x="233.172" y="-558.3" font-family="Times,serif" font-size="14.00">encrypted_password :string</text>
<text text-anchor="start" x="233.172" y="-544.3" font-family="Times,serif" font-size="14.00">reset_password_token :string</text>
<text text-anchor="start" x="233.172" y="-530.3" font-family="Times,serif" font-size="14.00">reset_password_sent_at :datetime</text>
<text text-anchor="start" x="233.172" y="-516.3" font-family="Times,serif" font-size="14.00">remember_created_at :datetime</text>
<text text-anchor="start" x="233.172" y="-502.3" font-family="Times,serif" font-size="14.00">sign_in_count :integer</text>
<text text-anchor="start" x="233.172" y="-488.3" font-family="Times,serif" font-size="14.00">current_sign_in_at :datetime</text>
<text text-anchor="start" x="233.172" y="-474.3" font-family="Times,serif" font-size="14.00">last_sign_in_at :datetime</text>
<text text-anchor="start" x="233.172" y="-460.3" font-family="Times,serif" font-size="14.00">current_sign_in_ip :string</text>
<text text-anchor="start" x="233.172" y="-446.3" font-family="Times,serif" font-size="14.00">last_sign_in_ip :string</text>
</g>
<!-- Dish -->
<g id="node3" class="node"><title>Dish</title>
<path fill="none" stroke="black" d="M458.779,-274.5C458.779,-274.5 570.121,-274.5 570.121,-274.5 576.121,-274.5 582.121,-280.5 582.121,-286.5 582.121,-286.5 582.121,-390.5 582.121,-390.5 582.121,-396.5 576.121,-402.5 570.121,-402.5 570.121,-402.5 458.779,-402.5 458.779,-402.5 452.779,-402.5 446.779,-396.5 446.779,-390.5 446.779,-390.5 446.779,-286.5 446.779,-286.5 446.779,-280.5 452.779,-274.5 458.779,-274.5"/>
<text text-anchor="middle" x="514.45" y="-387.3" font-family="Times,serif" font-size="14.00">Dish</text>
<polyline fill="none" stroke="black" points="446.779,-380.5 582.121,-380.5 "/>
<text text-anchor="start" x="454.779" y="-365.3" font-family="Times,serif" font-size="14.00">id :integer</text>
<text text-anchor="start" x="454.779" y="-351.3" font-family="Times,serif" font-size="14.00">dish_type_id :integer</text>
<text text-anchor="start" x="454.779" y="-337.3" font-family="Times,serif" font-size="14.00">restaurant_id :integer</text>
<text text-anchor="start" x="454.779" y="-323.3" font-family="Times,serif" font-size="14.00">name :string</text>
<text text-anchor="start" x="454.779" y="-309.3" font-family="Times,serif" font-size="14.00">price :float</text>
<text text-anchor="start" x="454.779" y="-295.3" font-family="Times,serif" font-size="14.00">created_at :datetime</text>
<text text-anchor="start" x="454.779" y="-281.3" font-family="Times,serif" font-size="14.00">updated_at :datetime</text>
</g>
<!-- Order -->
<g id="node5" class="node"><title>Order</title>
<path fill="none" stroke="black" d="M364.944,-137.5C364.944,-137.5 473.955,-137.5 473.955,-137.5 479.955,-137.5 485.955,-143.5 485.955,-149.5 485.955,-149.5 485.955,-225.5 485.955,-225.5 485.955,-231.5 479.955,-237.5 473.955,-237.5 473.955,-237.5 364.944,-237.5 364.944,-237.5 358.944,-237.5 352.944,-231.5 352.944,-225.5 352.944,-225.5 352.944,-149.5 352.944,-149.5 352.944,-143.5 358.944,-137.5 364.944,-137.5"/>
<text text-anchor="middle" x="419.45" y="-222.3" font-family="Times,serif" font-size="14.00">Order</text>
<polyline fill="none" stroke="black" points="352.944,-215.5 485.955,-215.5 "/>
<text text-anchor="start" x="360.944" y="-200.3" font-family="Times,serif" font-size="14.00">id :integer</text>
<text text-anchor="start" x="360.944" y="-186.3" font-family="Times,serif" font-size="14.00">user_id :integer</text>
<text text-anchor="start" x="360.944" y="-172.3" font-family="Times,serif" font-size="14.00">dish_id :integer</text>
<text text-anchor="start" x="360.944" y="-158.3" font-family="Times,serif" font-size="14.00">created_at :datetime</text>
<text text-anchor="start" x="360.944" y="-144.3" font-family="Times,serif" font-size="14.00">updated_at :datetime</text>
</g>
<!-- Dish&***REMOVED***45;&gt;Order -->
<g id="edge1" class="edge"><title>Dish&***REMOVED***45;&gt;Order</title>
<path fill="none" stroke="***REMOVED***39395d" d="M469.758,-267.405C465.27,-260.365 460.748,-253.273 456.353,-246.38"/>
<ellipse fill="none" stroke="***REMOVED***39395d" cx="472.011" cy="-270.938" rx="4.00002" ry="4.00002"/>
<polygon fill="***REMOVED***39395d" stroke="***REMOVED***39395d" points="456.243,-246.207 454.661,-235.356 453.555,-241.991 450.867,-237.775 450.867,-237.775 450.867,-237.775 453.555,-241.991 447.073,-240.195 456.243,-246.207 456.243,-246.207"/>
</g>
<!-- DishType -->
<g id="node4" class="node"><title>DishType</title>
<path fill="none" stroke="black" d="M459.944,-509.5C459.944,-509.5 568.955,-509.5 568.955,-509.5 574.955,-509.5 580.955,-515.5 580.955,-521.5 580.955,-521.5 580.955,-583.5 580.955,-583.5 580.955,-589.5 574.955,-595.5 568.955,-595.5 568.955,-595.5 459.944,-595.5 459.944,-595.5 453.944,-595.5 447.944,-589.5 447.944,-583.5 447.944,-583.5 447.944,-521.5 447.944,-521.5 447.944,-515.5 453.944,-509.5 459.944,-509.5"/>
<text text-anchor="middle" x="514.45" y="-580.3" font-family="Times,serif" font-size="14.00">DishType</text>
<polyline fill="none" stroke="black" points="447.944,-573.5 580.955,-573.5 "/>
<text text-anchor="start" x="455.944" y="-558.3" font-family="Times,serif" font-size="14.00">id :integer</text>
<text text-anchor="start" x="455.944" y="-544.3" font-family="Times,serif" font-size="14.00">name :string</text>
<text text-anchor="start" x="455.944" y="-530.3" font-family="Times,serif" font-size="14.00">created_at :datetime</text>
<text text-anchor="start" x="455.944" y="-516.3" font-family="Times,serif" font-size="14.00">updated_at :datetime</text>
</g>
<!-- DishType&***REMOVED***45;&gt;Dish -->
<g id="edge2" class="edge"><title>DishType&***REMOVED***45;&gt;Dish</title>
<path fill="none" stroke="***REMOVED***1e2216" d="M514.45,-501.281C514.45,-474.937 514.45,-442.166 514.45,-413.022"/>
<ellipse fill="none" stroke="***REMOVED***1e2216" cx="514.45" cy="-505.362" rx="4" ry="4"/>
<polygon fill="***REMOVED***1e2216" stroke="***REMOVED***1e2216" points="514.45,-412.88 518.95,-402.88 514.45,-407.88 514.45,-402.88 514.45,-402.88 514.45,-402.88 514.45,-407.88 509.95,-402.88 514.45,-412.88 514.45,-412.88"/>
</g>
<!-- Restaurant -->
<g id="node6" class="node"><title>Restaurant</title>
<path fill="none" stroke="black" d="M364.944,-0.5C364.944,-0.5 473.955,-0.5 473.955,-0.5 479.955,-0.5 485.955,-6.5 485.955,-12.5 485.955,-12.5 485.955,-88.5 485.955,-88.5 485.955,-94.5 479.955,-100.5 473.955,-100.5 473.955,-100.5 364.944,-100.5 364.944,-100.5 358.944,-100.5 352.944,-94.5 352.944,-88.5 352.944,-88.5 352.944,-12.5 352.944,-12.5 352.944,-6.5 358.944,-0.5 364.944,-0.5"/>
<text text-anchor="middle" x="419.45" y="-85.3" font-family="Times,serif" font-size="14.00">Restaurant</text>
<polyline fill="none" stroke="black" points="352.944,-78.5 485.955,-78.5 "/>
<text text-anchor="start" x="360.944" y="-63.3" font-family="Times,serif" font-size="14.00">id :integer</text>
<text text-anchor="start" x="360.944" y="-49.3" font-family="Times,serif" font-size="14.00">name :string</text>
<text text-anchor="start" x="360.944" y="-35.3" font-family="Times,serif" font-size="14.00">phone :string</text>
<text text-anchor="start" x="360.944" y="-21.3" font-family="Times,serif" font-size="14.00">created_at :datetime</text>
<text text-anchor="start" x="360.944" y="-7.3" font-family="Times,serif" font-size="14.00">updated_at :datetime</text>
</g>
<!-- Order&***REMOVED***45;&gt;Restaurant -->
<g id="edge3" class="edge"><title>Order&***REMOVED***45;&gt;Restaurant</title>
<path fill="none" stroke="***REMOVED***61bcce" d="M412.768,-129.176C412.678,-122.54 412.677,-115.77 412.764,-109.13"/>
<ellipse fill="none" stroke="***REMOVED***61bcce" cx="412.85" cy="-133.381" rx="4" ry="4"/>
<ellipse fill="***REMOVED***61bcce" stroke="***REMOVED***61bcce" cx="412.846" cy="-104.809" rx="4" ry="4"/>
</g>
<!-- Restaurant&***REMOVED***45;&gt;Dish -->
<g id="edge4" class="edge"><title>Restaurant&***REMOVED***45;&gt;Dish</title>
<path fill="none" stroke="***REMOVED***290698" d="M477.379,-107.02C484.506,-116.383 490.877,-126.495 495.45,-137 512.781,-176.814 517.768,-225.184 518.309,-264.44"/>
<ellipse fill="none" stroke="***REMOVED***290698" cx="474.823" cy="-103.797" rx="4.00002" ry="4.00002"/>
<polygon fill="***REMOVED***290698" stroke="***REMOVED***290698" points="518.309,-264.472 513.855,-274.493 518.332,-269.472 518.355,-274.472 518.355,-274.472 518.355,-274.472 518.332,-269.472 522.855,-274.452 518.309,-264.472 518.309,-264.472"/>
</g>
<!-- Restaurant&***REMOVED***45;&gt;Order -->
<g id="edge5" class="edge"><title>Restaurant&***REMOVED***45;&gt;Order</title>
<path fill="none" stroke="***REMOVED***9faf83" d="M426.157,-111.007C426.214,-116.372 426.214,-121.806 426.156,-127.17"/>
<polygon fill="***REMOVED***9faf83" stroke="***REMOVED***9faf83" points="426.154,-110.808 430.476,-100.73 426.066,-105.809 425.977,-100.81 425.977,-100.81 425.977,-100.81 426.066,-105.809 421.478,-100.889 426.154,-110.808 426.154,-110.808"/>
<polygon fill="***REMOVED***9faf83" stroke="***REMOVED***9faf83" points="426.152,-127.382 421.473,-137.299 426.062,-132.381 425.972,-137.38 425.972,-137.38 425.972,-137.38 426.062,-132.381 430.471,-137.461 426.152,-127.382 426.152,-127.382"/>
</g>
<!-- User -->
<g id="node7" class="node"><title>User</title>
<path fill="none" stroke="black" d="M307.944,-274.5C307.944,-274.5 416.955,-274.5 416.955,-274.5 422.955,-274.5 428.955,-280.5 428.955,-286.5 428.955,-286.5 428.955,-390.5 428.955,-390.5 428.955,-396.5 422.955,-402.5 416.955,-402.5 416.955,-402.5 307.944,-402.5 307.944,-402.5 301.944,-402.5 295.944,-396.5 295.944,-390.5 295.944,-390.5 295.944,-286.5 295.944,-286.5 295.944,-280.5 301.944,-274.5 307.944,-274.5"/>
<text text-anchor="middle" x="362.45" y="-387.3" font-family="Times,serif" font-size="14.00">User</text>
<polyline fill="none" stroke="black" points="295.944,-380.5 428.955,-380.5 "/>
<text text-anchor="start" x="303.944" y="-365.3" font-family="Times,serif" font-size="14.00">id :integer</text>
<text text-anchor="start" x="303.944" y="-351.3" font-family="Times,serif" font-size="14.00">nickname :string</text>
<text text-anchor="start" x="303.944" y="-337.3" font-family="Times,serif" font-size="14.00">email :string</text>
<text text-anchor="start" x="303.944" y="-323.3" font-family="Times,serif" font-size="14.00">avatar_url :string</text>
<text text-anchor="start" x="303.944" y="-309.3" font-family="Times,serif" font-size="14.00">created_at :datetime</text>
<text text-anchor="start" x="303.944" y="-295.3" font-family="Times,serif" font-size="14.00">updated_at :datetime</text>
<text text-anchor="start" x="303.944" y="-281.3" font-family="Times,serif" font-size="14.00">real_name :string</text>
</g>
<!-- User&***REMOVED***45;&gt;Order -->
<g id="edge6" class="edge"><title>User&***REMOVED***45;&gt;Order</title>
<path fill="none" stroke="***REMOVED***6233cb" d="M389.486,-266.827C391.952,-260.381 394.433,-253.896 396.854,-247.566"/>
<ellipse fill="none" stroke="***REMOVED***6233cb" cx="388.052" cy="-270.575" rx="4.00001" ry="4.00001"/>
<polygon fill="***REMOVED***6233cb" stroke="***REMOVED***6233cb" points="397.026,-247.115 404.802,-239.383 398.813,-242.445 400.599,-237.775 400.599,-237.775 400.599,-237.775 398.813,-242.445 396.396,-236.168 397.026,-247.115 397.026,-247.115"/>
</g>
</g>
</svg>
