<?xml version="1.0" encoding="UTF-8" standalone="no"?>
<!DOCTYPE svg PUBLIC "-//W3C//DTD SVG 1.1//EN"
 "http://www.w3.org/Graphics/SVG/1.1/DTD/svg11.dtd">
<!-- Generated by graphviz version 2.38.0 (20140413.2041)
 -->
<!-- Title: models_diagram Pages: 1 -->
<svg width="794pt" height="297pt"
 viewBox="0.00 0.00 793.82 297.00" xmlns="http://www.w3.org/2000/svg" xmlns:xlink="http://www.w3.org/1999/xlink">
<g id="graph0" class="graph" transform="scale(1 1) rotate(0) translate(4 293)">
<title>models_diagram</title>
<polygon fill="white" stroke="none" points="-4,4 -4,-293 789.816,-293 789.816,4 -4,4"/>
<!-- _diagram_info -->
<g id="node1" class="node"><title>_diagram_info</title>
<text text-anchor="start" x="8" y="-274.6" font-family="Times,serif" font-size="13.00">Models diagram</text>
<text text-anchor="start" x="8" y="-261.6" font-family="Times,serif" font-size="13.00">Date: Apr 20 2015 &#45; 13:48</text>
<text text-anchor="start" x="8" y="-248.6" font-family="Times,serif" font-size="13.00">Migration version: 20150418092115</text>
<text text-anchor="start" x="8" y="-235.6" font-family="Times,serif" font-size="13.00">Generated by RailRoady 1.3.0</text>
<text text-anchor="start" x="8" y="-222.6" font-family="Times,serif" font-size="13.00">http://railroady.prestonlee.com</text>
</g>
<!-- Admin -->
<g id="node2" class="node"><title>Admin</title>
<ellipse fill="none" stroke="black" cx="259.45" cy="-252.5" rx="34.8458" ry="18"/>
<text text-anchor="middle" x="259.45" y="-248.3" font-family="Times,serif" font-size="14.00">Admin</text>
</g>
<!-- BurgerBitchOAuth -->
<g id="node3" class="node"><title>BurgerBitchOAuth</title>
<ellipse fill="none" stroke="black" cx="389.45" cy="-252.5" rx="77.9832" ry="18"/>
<text text-anchor="middle" x="389.45" y="-248.3" font-family="Times,serif" font-size="14.00">BurgerBitchOAuth</text>
</g>
<!-- BurgerBitchRedisServer -->
<g id="node4" class="node"><title>BurgerBitchRedisServer</title>
<ellipse fill="none" stroke="black" cx="582.45" cy="-252.5" rx="96.7841" ry="18"/>
<text text-anchor="middle" x="582.45" y="-248.3" font-family="Times,serif" font-size="14.00">BurgerBitchRedisServer</text>
</g>
<!-- Dish -->
<g id="node5" class="node"><title>Dish</title>
<ellipse fill="none" stroke="black" cx="741.45" cy="-162" rx="27" ry="18"/>
<text text-anchor="middle" x="741.45" y="-157.8" font-family="Times,serif" font-size="14.00">Dish</text>
</g>
<!-- Order -->
<g id="node7" class="node"><title>Order</title>
<ellipse fill="none" stroke="black" cx="682.45" cy="-90" rx="30.9619" ry="18"/>
<text text-anchor="middle" x="682.45" y="-85.8" font-family="Times,serif" font-size="14.00">Order</text>
</g>
<!-- Dish&#45;&gt;Order -->
<g id="edge1" class="edge"><title>Dish&#45;&gt;Order</title>
<path fill="none" stroke="#81672e" d="M723.329,-139.501C716.622,-131.543 708.988,-122.486 702.148,-114.37"/>
<ellipse fill="none" stroke="#81672e" cx="726.07" cy="-142.753" rx="4.00002" ry="4.00002"/>
<polygon fill="#81672e" stroke="#81672e" points="702.08,-114.29 699.076,-103.744 698.858,-110.467 695.635,-106.644 695.635,-106.644 695.635,-106.644 698.858,-110.467 692.195,-109.544 702.08,-114.29 702.08,-114.29"/>
</g>
<!-- DishType -->
<g id="node6" class="node"><title>DishType</title>
<ellipse fill="none" stroke="black" cx="741.45" cy="-252.5" rx="44.2336" ry="18"/>
<text text-anchor="middle" x="741.45" y="-248.3" font-family="Times,serif" font-size="14.00">DishType</text>
</g>
<!-- DishType&#45;&gt;Dish -->
<g id="edge2" class="edge"><title>DishType&#45;&gt;Dish</title>
<path fill="none" stroke="#383419" d="M741.45,-226.189C741.45,-214.971 741.45,-201.752 741.45,-190.311"/>
<ellipse fill="none" stroke="#383419" cx="741.45" cy="-230.436" rx="4" ry="4"/>
<polygon fill="#383419" stroke="#383419" points="741.45,-190.011 745.95,-180.011 741.45,-185.011 741.45,-180.011 741.45,-180.011 741.45,-180.011 741.45,-185.011 736.95,-180.011 741.45,-190.011 741.45,-190.011"/>
</g>
<!-- Restaurant -->
<g id="node8" class="node"><title>Restaurant</title>
<ellipse fill="none" stroke="black" cx="682.45" cy="-18" rx="47.8496" ry="18"/>
<text text-anchor="middle" x="682.45" y="-13.8" font-family="Times,serif" font-size="14.00">Restaurant</text>
</g>
<!-- Order&#45;&gt;Restaurant -->
<g id="edge3" class="edge"><title>Order&#45;&gt;Restaurant</title>
<path fill="none" stroke="#3a32d5" d="M675.95,-63.9868C675.625,-57.6756 675.616,-50.8915 675.923,-44.5541"/>
<ellipse fill="none" stroke="#3a32d5" cx="676.264" cy="-68.0668" rx="4" ry="4"/>
<ellipse fill="#3a32d5" stroke="#3a32d5" cx="676.241" cy="-40.2644" rx="4" ry="4"/>
</g>
<!-- Restaurant&#45;&gt;Dish -->
<g id="edge4" class="edge"><title>Restaurant&#45;&gt;Dish</title>
<path fill="none" stroke="#b124e4" d="M703.157,-41.8516C710.223,-50.7179 717.565,-61.3043 722.45,-72 731.448,-91.7026 736.258,-115.827 738.784,-133.986"/>
<ellipse fill="none" stroke="#b124e4" cx="700.4" cy="-38.5168" rx="4.00002" ry="4.00002"/>
<polygon fill="#b124e4" stroke="#b124e4" points="738.784,-133.987 735.557,-144.468 739.403,-138.949 740.023,-143.91 740.023,-143.91 740.023,-143.91 739.403,-138.949 744.488,-143.353 738.784,-133.987 738.784,-133.987"/>
</g>
<!-- Restaurant&#45;&gt;Order -->
<g id="edge5" class="edge"><title>Restaurant&#45;&gt;Order</title>
<path fill="none" stroke="#cd95c1" d="M689.055,-46.3553C689.253,-51.4985 689.248,-56.8733 689.04,-62.0054"/>
<polygon fill="#cd95c1" stroke="#cd95c1" points="689.047,-46.2518 692.852,-35.9671 688.705,-41.2636 688.363,-36.2753 688.363,-36.2753 688.363,-36.2753 688.705,-41.2636 683.873,-36.5835 689.047,-46.2518 689.047,-46.2518"/>
<polygon fill="#cd95c1" stroke="#cd95c1" points="689.035,-62.08 683.839,-71.7367 688.682,-67.0675 688.328,-72.055 688.328,-72.055 688.328,-72.055 688.682,-67.0675 692.817,-72.3732 689.035,-62.08 689.035,-62.08"/>
</g>
<!-- User -->
<g id="node9" class="node"><title>User</title>
<ellipse fill="none" stroke="black" cx="669.45" cy="-162" rx="27" ry="18"/>
<text text-anchor="middle" x="669.45" y="-157.8" font-family="Times,serif" font-size="14.00">User</text>
</g>
<!-- User&#45;&gt;Order -->
<g id="edge6" class="edge"><title>User&#45;&gt;Order</title>
<path fill="none" stroke="#9b675f" d="M674.095,-135.987C675.161,-130.249 676.299,-124.121 677.381,-118.293"/>
<ellipse fill="none" stroke="#9b675f" cx="673.327" cy="-140.122" rx="4.00001" ry="4.00001"/>
<polygon fill="#9b675f" stroke="#9b675f" points="677.415,-118.107 683.666,-109.097 678.328,-113.191 679.241,-108.275 679.241,-108.275 679.241,-108.275 678.328,-113.191 674.817,-107.454 677.415,-118.107 677.415,-118.107"/>
</g>
</g>
</svg>
