<?xml version="1.0" encoding="UTF-8" standalone="no"?>
<!DOCTYPE svg PUBLIC "-//W3C//DTD SVG 1.1//EN"
 "http://www.w3.org/Graphics/SVG/1.1/DTD/svg11.dtd">
<!-- Generated by graphviz version 2.38.0 (20140413.2041)
 -->
<!-- Title: models_diagram Pages: 1 -->
<svg width="740pt" height="635pt"
 viewBox="0.00 0.00 740.19 635.00" xmlns="http://www.w3.org/2000/svg" xmlns:xlink="http://www.w3.org/1999/xlink">
<g id="graph0" class="graph" transform="scale(1 1) rotate(0) translate(4 631)">
<title>models_diagram</title>
<polygon fill="white" stroke="none" points="-4,4 -4,-631 736.193,-631 736.193,4 -4,4"/>
<!-- _diagram_info -->
<g id="node1" class="node"><title>_diagram_info</title>
<text text-anchor="start" x="8" y="-535.6" font-family="Times,serif" font-size="13.00">Models diagram</text>
<text text-anchor="start" x="8" y="-522.6" font-family="Times,serif" font-size="13.00">Date: Apr 01 2015 &***REMOVED***45; 12:31</text>
<text text-anchor="start" x="8" y="-509.6" font-family="Times,serif" font-size="13.00">Migration version: 20150327093513</text>
<text text-anchor="start" x="8" y="-496.6" font-family="Times,serif" font-size="13.00">Generated by RailRoady 1.3.0</text>
<text text-anchor="start" x="8" y="-483.6" font-family="Times,serif" font-size="13.00">http://railroady.prestonlee.com</text>
</g>
<!-- Admin -->
<g id="node2" class="node"><title>Admin</title>
<path fill="none" stroke="black" d="M237.41,-400.5C237.41,-400.5 417.966,-400.5 417.966,-400.5 423.966,-400.5 429.966,-406.5 429.966,-412.5 429.966,-412.5 429.966,-614.5 429.966,-614.5 429.966,-620.5 423.966,-626.5 417.966,-626.5 417.966,-626.5 237.41,-626.5 237.41,-626.5 231.41,-626.5 225.41,-620.5 225.41,-614.5 225.41,-614.5 225.41,-412.5 225.41,-412.5 225.41,-406.5 231.41,-400.5 237.41,-400.5"/>
<text text-anchor="middle" x="327.688" y="-611.3" font-family="Times,serif" font-size="14.00">Admin</text>
<polyline fill="none" stroke="black" points="225.41,-604.5 429.966,-604.5 "/>
<text text-anchor="start" x="233.41" y="-589.3" font-family="Times,serif" font-size="14.00">id :integer</text>
<text text-anchor="start" x="233.41" y="-575.3" font-family="Times,serif" font-size="14.00">name :string</text>
<text text-anchor="start" x="233.41" y="-561.3" font-family="Times,serif" font-size="14.00">created_at :datetime</text>
<text text-anchor="start" x="233.41" y="-547.3" font-family="Times,serif" font-size="14.00">updated_at :datetime</text>
<text text-anchor="start" x="233.41" y="-533.3" font-family="Times,serif" font-size="14.00">email :string</text>
<text text-anchor="start" x="233.41" y="-519.3" font-family="Times,serif" font-size="14.00">encrypted_password :string</text>
<text text-anchor="start" x="233.41" y="-505.3" font-family="Times,serif" font-size="14.00">reset_password_token :string</text>
<text text-anchor="start" x="233.41" y="-491.3" font-family="Times,serif" font-size="14.00">reset_password_sent_at :datetime</text>
<text text-anchor="start" x="233.41" y="-477.3" font-family="Times,serif" font-size="14.00">remember_created_at :datetime</text>
<text text-anchor="start" x="233.41" y="-463.3" font-family="Times,serif" font-size="14.00">sign_in_count :integer</text>
<text text-anchor="start" x="233.41" y="-449.3" font-family="Times,serif" font-size="14.00">current_sign_in_at :datetime</text>
<text text-anchor="start" x="233.41" y="-435.3" font-family="Times,serif" font-size="14.00">last_sign_in_at :datetime</text>
<text text-anchor="start" x="233.41" y="-421.3" font-family="Times,serif" font-size="14.00">current_sign_in_ip :string</text>
<text text-anchor="start" x="233.41" y="-407.3" font-family="Times,serif" font-size="14.00">last_sign_in_ip :string</text>
</g>
<!-- Dish -->
<g id="node3" class="node"><title>Dish</title>
<path fill="none" stroke="black" d="M534.017,-186.5C534.017,-186.5 645.359,-186.5 645.359,-186.5 651.359,-186.5 657.359,-192.5 657.359,-198.5 657.359,-198.5 657.359,-302.5 657.359,-302.5 657.359,-308.5 651.359,-314.5 645.359,-314.5 645.359,-314.5 534.017,-314.5 534.017,-314.5 528.017,-314.5 522.017,-308.5 522.017,-302.5 522.017,-302.5 522.017,-198.5 522.017,-198.5 522.017,-192.5 528.017,-186.5 534.017,-186.5"/>
<text text-anchor="middle" x="589.688" y="-299.3" font-family="Times,serif" font-size="14.00">Dish</text>
<polyline fill="none" stroke="black" points="522.017,-292.5 657.359,-292.5 "/>
<text text-anchor="start" x="530.017" y="-277.3" font-family="Times,serif" font-size="14.00">id :integer</text>
<text text-anchor="start" x="530.017" y="-263.3" font-family="Times,serif" font-size="14.00">dish_type_id :integer</text>
<text text-anchor="start" x="530.017" y="-249.3" font-family="Times,serif" font-size="14.00">restaurant_id :integer</text>
<text text-anchor="start" x="530.017" y="-235.3" font-family="Times,serif" font-size="14.00">name :string</text>
<text text-anchor="start" x="530.017" y="-221.3" font-family="Times,serif" font-size="14.00">price :float</text>
<text text-anchor="start" x="530.017" y="-207.3" font-family="Times,serif" font-size="14.00">created_at :datetime</text>
<text text-anchor="start" x="530.017" y="-193.3" font-family="Times,serif" font-size="14.00">updated_at :datetime</text>
</g>
<!-- Order -->
<g id="node5" class="node"><title>Order</title>
<path fill="none" stroke="black" d="M441.182,-0.5C441.182,-0.5 550.193,-0.5 550.193,-0.5 556.193,-0.5 562.193,-6.5 562.193,-12.5 562.193,-12.5 562.193,-88.5 562.193,-88.5 562.193,-94.5 556.193,-100.5 550.193,-100.5 550.193,-100.5 441.182,-100.5 441.182,-100.5 435.182,-100.5 429.182,-94.5 429.182,-88.5 429.182,-88.5 429.182,-12.5 429.182,-12.5 429.182,-6.5 435.182,-0.5 441.182,-0.5"/>
<text text-anchor="middle" x="495.688" y="-85.3" font-family="Times,serif" font-size="14.00">Order</text>
<polyline fill="none" stroke="black" points="429.182,-78.5 562.193,-78.5 "/>
<text text-anchor="start" x="437.182" y="-63.3" font-family="Times,serif" font-size="14.00">id :integer</text>
<text text-anchor="start" x="437.182" y="-49.3" font-family="Times,serif" font-size="14.00">user_id :integer</text>
<text text-anchor="start" x="437.182" y="-35.3" font-family="Times,serif" font-size="14.00">dish_id :integer</text>
<text text-anchor="start" x="437.182" y="-21.3" font-family="Times,serif" font-size="14.00">created_at :datetime</text>
<text text-anchor="start" x="437.182" y="-7.3" font-family="Times,serif" font-size="14.00">updated_at :datetime</text>
</g>
<!-- Dish&***REMOVED***45;&gt;Order -->
<g id="edge1" class="edge"><title>Dish&***REMOVED***45;&gt;Order</title>
<path fill="none" stroke="***REMOVED***4d7783" d="M556.251,-179.069C545.469,-156.359 533.646,-131.455 523.33,-109.726"/>
<ellipse fill="none" stroke="***REMOVED***4d7783" cx="557.972" cy="-182.694" rx="4.00002" ry="4.00002"/>
<polygon fill="***REMOVED***4d7783" stroke="***REMOVED***4d7783" points="523.298,-109.657 523.074,-98.6937 521.153,-105.14 519.009,-100.624 519.009,-100.624 519.009,-100.624 521.153,-105.14 514.944,-102.554 523.298,-109.657 523.298,-109.657"/>
</g>
<!-- DishType -->
<g id="node4" class="node"><title>DishType</title>
<path fill="none" stroke="black" d="M460.182,-470.5C460.182,-470.5 569.193,-470.5 569.193,-470.5 575.193,-470.5 581.193,-476.5 581.193,-482.5 581.193,-482.5 581.193,-544.5 581.193,-544.5 581.193,-550.5 575.193,-556.5 569.193,-556.5 569.193,-556.5 460.182,-556.5 460.182,-556.5 454.182,-556.5 448.182,-550.5 448.182,-544.5 448.182,-544.5 448.182,-482.5 448.182,-482.5 448.182,-476.5 454.182,-470.5 460.182,-470.5"/>
<text text-anchor="middle" x="514.688" y="-541.3" font-family="Times,serif" font-size="14.00">DishType</text>
<polyline fill="none" stroke="black" points="448.182,-534.5 581.193,-534.5 "/>
<text text-anchor="start" x="456.182" y="-519.3" font-family="Times,serif" font-size="14.00">id :integer</text>
<text text-anchor="start" x="456.182" y="-505.3" font-family="Times,serif" font-size="14.00">name :string</text>
<text text-anchor="start" x="456.182" y="-491.3" font-family="Times,serif" font-size="14.00">created_at :datetime</text>
<text text-anchor="start" x="456.182" y="-477.3" font-family="Times,serif" font-size="14.00">updated_at :datetime</text>
</g>
<!-- DishType&***REMOVED***45;&gt;Dish -->
<g id="edge2" class="edge"><title>DishType&***REMOVED***45;&gt;Dish</title>
<path fill="none" stroke="***REMOVED***770793" d="M529.091,-462.378C540.329,-423.268 556.101,-368.383 568.737,-324.41"/>
<ellipse fill="none" stroke="***REMOVED***770793" cx="527.926" cy="-466.431" rx="4.00001" ry="4.00001"/>
<polygon fill="***REMOVED***770793" stroke="***REMOVED***770793" points="568.785,-324.242 575.872,-315.874 570.166,-319.437 571.547,-314.631 571.547,-314.631 571.547,-314.631 570.166,-319.437 567.222,-313.389 568.785,-324.242 568.785,-324.242"/>
</g>
<!-- Restaurant -->
<g id="node6" class="node"><title>Restaurant</title>
<path fill="none" stroke="black" d="M611.182,-463.5C611.182,-463.5 720.193,-463.5 720.193,-463.5 726.193,-463.5 732.193,-469.5 732.193,-475.5 732.193,-475.5 732.193,-551.5 732.193,-551.5 732.193,-557.5 726.193,-563.5 720.193,-563.5 720.193,-563.5 611.182,-563.5 611.182,-563.5 605.182,-563.5 599.182,-557.5 599.182,-551.5 599.182,-551.5 599.182,-475.5 599.182,-475.5 599.182,-469.5 605.182,-463.5 611.182,-463.5"/>
<text text-anchor="middle" x="665.688" y="-548.3" font-family="Times,serif" font-size="14.00">Restaurant</text>
<polyline fill="none" stroke="black" points="599.182,-541.5 732.193,-541.5 "/>
<text text-anchor="start" x="607.182" y="-526.3" font-family="Times,serif" font-size="14.00">id :integer</text>
<text text-anchor="start" x="607.182" y="-512.3" font-family="Times,serif" font-size="14.00">name :string</text>
<text text-anchor="start" x="607.182" y="-498.3" font-family="Times,serif" font-size="14.00">phone :string</text>
<text text-anchor="start" x="607.182" y="-484.3" font-family="Times,serif" font-size="14.00">created_at :datetime</text>
<text text-anchor="start" x="607.182" y="-470.3" font-family="Times,serif" font-size="14.00">updated_at :datetime</text>
</g>
<!-- Restaurant&***REMOVED***45;&gt;Dish -->
<g id="edge3" class="edge"><title>Restaurant&***REMOVED***45;&gt;Dish</title>
<path fill="none" stroke="***REMOVED***f61cef" d="M649.109,-455.564C637.905,-417.089 623.013,-365.945 610.939,-324.483"/>
<ellipse fill="none" stroke="***REMOVED***f61cef" cx="650.274" cy="-459.567" rx="4.00001" ry="4.00001"/>
<polygon fill="***REMOVED***f61cef" stroke="***REMOVED***f61cef" points="610.889,-324.311 612.414,-313.451 609.491,-319.51 608.094,-314.709 608.094,-314.709 608.094,-314.709 609.491,-319.51 603.773,-315.968 610.889,-324.311 610.889,-324.311"/>
</g>
<!-- User -->
<g id="node7" class="node"><title>User</title>
<path fill="none" stroke="black" d="M311.41,-137.5C311.41,-137.5 491.966,-137.5 491.966,-137.5 497.966,-137.5 503.966,-143.5 503.966,-149.5 503.966,-149.5 503.966,-351.5 503.966,-351.5 503.966,-357.5 497.966,-363.5 491.966,-363.5 491.966,-363.5 311.41,-363.5 311.41,-363.5 305.41,-363.5 299.41,-357.5 299.41,-351.5 299.41,-351.5 299.41,-149.5 299.41,-149.5 299.41,-143.5 305.41,-137.5 311.41,-137.5"/>
<text text-anchor="middle" x="401.688" y="-348.3" font-family="Times,serif" font-size="14.00">User</text>
<polyline fill="none" stroke="black" points="299.41,-341.5 503.966,-341.5 "/>
<text text-anchor="start" x="307.41" y="-326.3" font-family="Times,serif" font-size="14.00">id :integer</text>
<text text-anchor="start" x="307.41" y="-312.3" font-family="Times,serif" font-size="14.00">name :string</text>
<text text-anchor="start" x="307.41" y="-298.3" font-family="Times,serif" font-size="14.00">created_at :datetime</text>
<text text-anchor="start" x="307.41" y="-284.3" font-family="Times,serif" font-size="14.00">updated_at :datetime</text>
<text text-anchor="start" x="307.41" y="-270.3" font-family="Times,serif" font-size="14.00">email :string</text>
<text text-anchor="start" x="307.41" y="-256.3" font-family="Times,serif" font-size="14.00">encrypted_password :string</text>
<text text-anchor="start" x="307.41" y="-242.3" font-family="Times,serif" font-size="14.00">reset_password_token :string</text>
<text text-anchor="start" x="307.41" y="-228.3" font-family="Times,serif" font-size="14.00">reset_password_sent_at :datetime</text>
<text text-anchor="start" x="307.41" y="-214.3" font-family="Times,serif" font-size="14.00">remember_created_at :datetime</text>
<text text-anchor="start" x="307.41" y="-200.3" font-family="Times,serif" font-size="14.00">sign_in_count :integer</text>
<text text-anchor="start" x="307.41" y="-186.3" font-family="Times,serif" font-size="14.00">current_sign_in_at :datetime</text>
<text text-anchor="start" x="307.41" y="-172.3" font-family="Times,serif" font-size="14.00">last_sign_in_at :datetime</text>
<text text-anchor="start" x="307.41" y="-158.3" font-family="Times,serif" font-size="14.00">current_sign_in_ip :string</text>
<text text-anchor="start" x="307.41" y="-144.3" font-family="Times,serif" font-size="14.00">last_sign_in_ip :string</text>
</g>
<!-- User&***REMOVED***45;&gt;Order -->
<g id="edge4" class="edge"><title>User&***REMOVED***45;&gt;Order</title>
<path fill="none" stroke="***REMOVED***59c5f8" d="M458.403,-130.037C461.644,-123.21 464.82,-116.519 467.867,-110.101"/>
<ellipse fill="none" stroke="***REMOVED***59c5f8" cx="456.584" cy="-133.868" rx="4.00002" ry="4.00002"/>
<polygon fill="***REMOVED***59c5f8" stroke="***REMOVED***59c5f8" points="467.942,-109.944 476.296,-102.84 470.086,-105.427 472.23,-100.91 472.23,-100.91 472.23,-100.91 470.086,-105.427 468.165,-98.9802 467.942,-109.944 467.942,-109.944"/>
</g>
</g>
</svg>
